<?xml version="1.0" standalone="no"?><!DOCTYPE svg PUBLIC "-//W3C//DTD SVG 1.1//EN" "http://www.w3.org/Graphics/SVG/1.1/DTD/svg11.dtd"><svg t="1626837838419" class="icon" viewBox="0 0 1024 1024" version="1.1" xmlns="http://www.w3.org/2000/svg" p-id="24349" xmlns:xlink="http://www.w3.org/1999/xlink" width="128" height="128"><defs><style type="text/css"></style></defs><path d="M559.872 513.955L450.63 435.92a34.708 34.708 0 0 1-17.967 6.284l-28.416 99.538a34.91 34.91 0 1 1-22.388-6.4l28.44-99.538a34.91 34.91 0 1 1 53.829-18.85l109.265 78.033a34.496 34.496 0 0 1 17.944-6.284l28.439-99.514a34.91 34.91 0 1 1 22.388 6.4l-28.439 99.514a34.91 34.91 0 1 1-53.83 18.828zM512 139.636c205.638 0 372.364 166.726 372.364 372.364S717.638 884.364 512 884.364 139.636 717.638 139.636 512 306.362 139.636 512 139.636z m0 698.182c179.945 0 325.818-145.873 325.818-325.818S691.945 186.182 512 186.182 186.182 332.055 186.182 512 332.055 837.818 512 837.818zM337.455 674.91h349.09a11.636 11.636 0 1 1 0 23.273h-349.09a11.636 11.636 0 1 1 0-23.273z m93.09-256a11.636 11.636 0 1 0 0-23.273 11.636 11.636 0 0 0 0 23.273z m162.91 116.364a11.636 11.636 0 1 0 0-23.273 11.636 11.636 0 0 0 0 23.273zM640 372.363a11.636 11.636 0 1 0 0-23.272 11.636 11.636 0 0 0 0 23.273zM384 581.819a11.636 11.636 0 1 0 0-23.273 11.636 11.636 0 0 0 0 23.273z" fill="#21A3DD" p-id="24350"></path></svg>