<?xml version="1.0" standalone="no"?><!DOCTYPE svg PUBLIC "-//W3C//DTD SVG 1.1//EN" "http://www.w3.org/Graphics/SVG/1.1/DTD/svg11.dtd"><svg t="1626837949830" class="icon" viewBox="0 0 1024 1024" version="1.1" xmlns="http://www.w3.org/2000/svg" p-id="27627" xmlns:xlink="http://www.w3.org/1999/xlink" width="128" height="128"><defs><style type="text/css"></style></defs><path d="M507.2896 910.8992c-220.2112 0-399.36-179.1488-399.36-399.36s179.1488-399.36 399.36-399.36 399.36 179.1488 399.36 399.36-179.1488 399.36-399.36 399.36z m0-747.52c-192 0-348.16 156.16-348.16 348.16s156.16 348.16 348.16 348.16 348.16-156.16 348.16-348.16-156.2112-348.16-348.16-348.16z" fill="#606D87" p-id="27628"></path><path d="M366.1824 671.232c-14.1312 0-25.6-11.4688-25.6-25.6V459.3664c0-14.1312 11.4688-25.6 25.6-25.6s25.6 11.4688 25.6 25.6v186.2656c0 14.1312-11.4176 25.6-25.6 25.6zM499.7632 671.232c-14.1312 0-25.6-11.4688-25.6-25.6V367.2064c0-14.1312 11.4688-25.6 25.6-25.6s25.6 11.4688 25.6 25.6v278.4256c0 14.1312-11.4688 25.6-25.6 25.6zM633.344 671.232c-14.1312 0-25.6-11.4688-25.6-25.6v-124.8256c0-14.1312 11.4688-25.6 25.6-25.6s25.6 11.4688 25.6 25.6v124.8256c0 14.1312-11.4688 25.6-25.6 25.6z" fill="#FFAF50" p-id="27629"></path></svg>