<?xml version="1.0" standalone="no"?><!DOCTYPE svg PUBLIC "-//W3C//DTD SVG 1.1//EN" "http://www.w3.org/Graphics/SVG/1.1/DTD/svg11.dtd"><svg t="1626837961290" class="icon" viewBox="0 0 1024 1024" version="1.1" xmlns="http://www.w3.org/2000/svg" p-id="28576" xmlns:xlink="http://www.w3.org/1999/xlink" width="128" height="128"><defs><style type="text/css"></style></defs><path d="M768.9 780.2c-5 0-10.1-1.3-14.6-4.1-73.4-45.7-160.3-69.7-251.4-69.7-85.7 0-168.3 21.5-238.9 62.2-13.3 7.6-30.3 3.1-37.9-10.2-7.6-13.3-3.1-30.3 10.2-37.9 79.1-45.5 171.2-69.6 266.7-69.6 101.6 0 198.6 27 280.8 78.2 13.1 8.2 17 25.2 8.9 38.3-5.5 8.3-14.5 12.8-23.8 12.8z" p-id="28577"></path><path d="M512 669.3c-96.9 0-175.9-78.9-175.9-175.9v-74c0-96.9 78.9-175.9 175.9-175.9s175.9 78.9 175.9 175.9v74c0 97-79 175.9-175.9 175.9z m0-370.2c-66.4 0-120.3 54-120.3 120.3v74c0 66.4 54 120.3 120.3 120.3s120.3-54 120.3-120.3v-74c0-66.3-53.9-120.3-120.3-120.3z" p-id="28578"></path><path d="M512 909.9c-219.5 0-397.9-178.4-397.9-397.9S292.5 114.1 512 114.1 909.9 292.5 909.9 512 731.5 909.9 512 909.9z m0-740.3c-188.8 0-342.4 153.6-342.4 342.4S323.2 854.4 512 854.4 854.4 700.8 854.4 512 700.8 169.6 512 169.6z" p-id="28579"></path></svg>