<?xml version="1.0" standalone="no"?><!DOCTYPE svg PUBLIC "-//W3C//DTD SVG 1.1//EN" "http://www.w3.org/Graphics/SVG/1.1/DTD/svg11.dtd"><svg t="1626837676612" class="icon" viewBox="0 0 1024 1024" version="1.1" xmlns="http://www.w3.org/2000/svg" p-id="13452" xmlns:xlink="http://www.w3.org/1999/xlink" width="128" height="128"><defs><style type="text/css"></style></defs><path d="M600.746667 918.186667c-17.066667 0-30.72-10.24-34.133334-27.306667-3.413333-17.066667 10.24-37.546667 27.306667-40.96 160.426667-30.72 279.893333-170.666667 279.893333-334.506667 0-187.733333-153.6-341.333333-341.333333-341.333333s-341.333333 153.6-341.333333 341.333333c0 163.84 116.053333 307.2 279.893333 334.506667 17.066667 3.413333 30.72 20.48 27.306667 40.96-3.413333 17.066667-20.48 30.72-40.96 27.306667-194.56-34.133333-334.506667-204.8-334.506667-402.773334 0-225.28 184.32-409.6 409.6-409.6s409.6 184.32 409.6 409.6c0 197.973333-139.946667 368.64-334.506667 402.773334h-6.826666z" fill="#ffffff" p-id="13453"></path></svg>